<svg xmlns="http://www.w3.org/2000/svg" width="21.666" height="21" viewBox="0 0 21.666 21"><defs><style>.a{fill:#18775d;}</style></defs><path class="a" d="M21.473,9.538a.941.941,0,0,0-.746-.368H14.536L12.553.725a.94.94,0,0,0-1.831.43L12.6,9.17H8.256l1.883-8.016A.94.94,0,0,0,8.308.725L6.325,9.169H.941a.94.94,0,0,0-.908,1.184L2.7,20.3a.94.94,0,0,0,.908.7H18.058a.941.941,0,0,0,.908-.7l2.669-9.95A.944.944,0,0,0,21.473,9.538Zm-3.189,6.05-3.114,0,.279-1.224,3.164,0ZM8.395,19.12l-.372-1.637,4.791-.007-.374,1.644Zm-.8-3.516-.279-1.225,6.2-.008L13.241,15.6ZM3.06,14.384l2.328,0,.279,1.226-2.278,0ZM7.069,11.05h7.206l-.327,1.439L6.889,12.5,6.56,11.05Zm12.048,1.433-3.241,0L16.2,11.05h3.3ZM4.631,11.05l.33,1.451-2.4,0-.39-1.454H4.631Zm-.738,6.439,2.2,0,.372,1.634H4.331ZM14.368,19.12l.374-1.647,3.037,0-.443,1.651Z" transform="translate(-0.001 0.001)"/></svg>