<svg xmlns="http://www.w3.org/2000/svg" width="24" height="23.998" viewBox="0 0 24 23.998"><defs><style>.a{fill:#fff;}</style></defs><path class="a" d="M23.248,2.563a2.884,2.884,0,0,1,2.127.873,2.681,2.681,0,0,1,.873,2.073V23.561a2.98,2.98,0,0,1-3,3H18.721V17.944h3.163V14.18H18.721V12.217c0-.545.273-.819.764-.819h2.4V7.144H19.211a4.405,4.405,0,0,0-3.436,1.527,5.2,5.2,0,0,0-1.418,3.655V14.18H11.466v3.764h2.891v8.617H5.248a2.884,2.884,0,0,1-2.127-.873,2.88,2.88,0,0,1-.873-2.127V5.508a2.683,2.683,0,0,1,.873-2.073,2.881,2.881,0,0,1,2.127-.873h18Z" transform="translate(-2.248 -2.563)"/></svg>