<svg xmlns="http://www.w3.org/2000/svg" width="24" height="24" viewBox="0 0 24 24"><defs><style>.a{fill:#fff;}</style></defs><path class="a" d="M12,0C8.74,0,8.333.015,7.053.072A8.849,8.849,0,0,0,4.14.63,5.884,5.884,0,0,0,2.014,2.014,5.836,5.836,0,0,0,.63,4.14,8.829,8.829,0,0,0,.072,7.053C.012,8.333,0,8.74,0,12s.015,3.667.072,4.947A8.853,8.853,0,0,0,.63,19.86a6.129,6.129,0,0,0,3.51,3.51,8.857,8.857,0,0,0,2.913.558C8.333,23.988,8.74,24,12,24s3.667-.015,4.947-.072a8.872,8.872,0,0,0,2.913-.558,6.129,6.129,0,0,0,3.51-3.51,8.853,8.853,0,0,0,.558-2.913C23.988,15.667,24,15.26,24,12s-.015-3.667-.072-4.947A8.868,8.868,0,0,0,23.37,4.14a5.894,5.894,0,0,0-1.384-2.126A5.84,5.84,0,0,0,19.86.63,8.833,8.833,0,0,0,16.947.072C15.667.012,15.26,0,12,0Zm0,2.16c3.2,0,3.585.016,4.85.071a6.608,6.608,0,0,1,2.227.415,3.952,3.952,0,0,1,2.278,2.277,6.623,6.623,0,0,1,.413,2.227c.057,1.266.07,1.646.07,4.85s-.015,3.585-.074,4.85a6.743,6.743,0,0,1-.421,2.227,3.819,3.819,0,0,1-.9,1.382,3.752,3.752,0,0,1-1.38.9,6.672,6.672,0,0,1-2.235.413c-1.274.057-1.649.07-4.859.07s-3.586-.015-4.859-.074a6.8,6.8,0,0,1-2.236-.421,3.721,3.721,0,0,1-1.379-.9,3.651,3.651,0,0,1-.9-1.38,6.8,6.8,0,0,1-.42-2.235c-.045-1.26-.061-1.649-.061-4.844s.016-3.586.061-4.861A6.8,6.8,0,0,1,2.6,4.89a3.557,3.557,0,0,1,.9-1.381,3.541,3.541,0,0,1,1.379-.9A6.648,6.648,0,0,1,7.1,2.191c1.275-.045,1.65-.06,4.859-.06l.045.03Zm0,3.678A6.162,6.162,0,1,0,18.162,12,6.162,6.162,0,0,0,12,5.838ZM12,16a4,4,0,1,1,4-4A4,4,0,0,1,12,16Zm7.846-10.4a1.44,1.44,0,1,1-1.44-1.439A1.441,1.441,0,0,1,19.846,5.595Z"/></svg>