<svg xmlns="http://www.w3.org/2000/svg" width="24" height="22.87" viewBox="0 0 24 22.87"><defs><style>.a{fill:#fff;}</style></defs><path class="a" d="M24,10.5C24,5.109,18.608.75,12,.75S0,5.11,0,10.5c0,4.781,4.266,8.859,10.031,9.609.375.094.937.235,1.078.562a3.018,3.018,0,0,1,0,1.125s-.141.844-.141.985c-.047.328-.235,1.219,1.031.656A39.418,39.418,0,0,0,21.422,16.5h0A8.724,8.724,0,0,0,24,10.5ZM7.312,13.687H4.921a.663.663,0,0,1-.656-.61V8.3a.671.671,0,0,1,.656-.656.632.632,0,0,1,.61.656v4.125H7.312a.632.632,0,0,1,.61.656A.621.621,0,0,1,7.312,13.687Zm2.437-.609a.61.61,0,0,1-1.219,0V8.3a.611.611,0,1,1,1.219,0Zm5.766,0a.656.656,0,0,1-.422.562.421.421,0,0,1-.235.047.576.576,0,0,1-.469-.235l-2.437-3.328v2.953a.632.632,0,0,1-.656.61.621.621,0,0,1-.61-.61V8.3a.606.606,0,0,1,.422-.61c.047,0,.141-.047.187-.047a.649.649,0,0,1,.516.281L14.25,11.25V8.3a.632.632,0,0,1,.61-.656.641.641,0,0,1,.656.656v4.781Zm3.844-3.047a.641.641,0,0,1,.656.656.632.632,0,0,1-.656.61H17.624v1.125h1.735a.641.641,0,0,1,.656.656.632.632,0,0,1-.656.61H16.968a.621.621,0,0,1-.61-.61V10.687h0V8.3a.632.632,0,0,1,.61-.656h2.391a.641.641,0,0,1,.656.656.632.632,0,0,1-.656.61H17.624v1.125Z" transform="translate(0 -0.75)"/></svg>