<svg xmlns="http://www.w3.org/2000/svg" width="44" height="43.824" viewBox="0 0 44 43.824"><defs><style>.a{fill:#fff;}</style></defs><g transform="translate(0 -0.048)"><path class="a" d="M9.075,21.56a18.5,18.5,0,0,1-2.567-2.046,1.833,1.833,0,1,0-2.53,2.653,22.057,22.057,0,0,0,3.08,2.46A1.835,1.835,0,1,0,9.075,21.56Z" transform="translate(2.842 15.8)"/><path class="a" d="M5.676,19.047a18.15,18.15,0,0,1-1.43-2.95A1.833,1.833,0,0,0,.814,17.381a21.731,21.731,0,0,0,1.72,3.546,1.833,1.833,0,1,0,3.143-1.888Z" transform="translate(0.6 12.435)"/><path class="a" d="M17.268,21.611a18.333,18.333,0,0,1-3.2.733,1.833,1.833,0,1,0,.49,3.634A22.159,22.159,0,0,0,18.4,25.1a1.833,1.833,0,1,0-1.131-3.483Z" transform="translate(10.4 17.878)"/><path class="a" d="M13.25,22.344a18.309,18.309,0,0,1-3.2-.724A1.833,1.833,0,1,0,8.919,25.1a21.816,21.816,0,0,0,3.85.869,1.833,1.833,0,1,0,.486-3.634Z" transform="translate(6.301 17.876)"/><path class="a" d="M24.49,15.045a1.833,1.833,0,0,0-2.361,1.069A18.489,18.489,0,0,1,20.7,19.067a1.836,1.836,0,1,0,3.15,1.887,21.89,21.89,0,0,0,1.718-3.548,1.833,1.833,0,0,0-1.078-2.361Z" transform="translate(17.033 12.399)"/><path class="a" d="M20.478,19.512a18.538,18.538,0,0,1-2.567,2.048,1.833,1.833,0,1,0,2.017,3.058,22.149,22.149,0,0,0,3.08-2.455,1.834,1.834,0,0,0-2.534-2.651Z" transform="translate(14.183 15.797)"/><path class="a" d="M22,.048a22.024,22.024,0,0,0-22,22c0,.675.031,1.34.09,2a1.833,1.833,0,1,0,3.652-.328q-.075-.825-.075-1.668a18.333,18.333,0,1,1,36.667,0q0,.845-.075,1.668a1.833,1.833,0,0,0,3.652.328c.059-.656.09-1.322.09-2a22.024,22.024,0,0,0-22-22Z" transform="translate(0 0)"/><path class="a" d="M3.959,11.171a14.767,14.767,0,0,0,10.47,14.117.458.458,0,0,0,.59-.451,17.835,17.835,0,0,1,1.833-7.588.917.917,0,0,0-.082-.948A14.733,14.733,0,0,0,4.878,10.262.917.917,0,0,0,3.959,11.171Z" transform="translate(3.299 8.512)"/><path class="a" d="M14.065,19.026a.46.46,0,0,0,.708,0,17.56,17.56,0,0,1,4.514-3.874.917.917,0,0,0,.442-.873,16.251,16.251,0,0,0-4.66-9.957.917.917,0,0,0-1.3,0A16.286,16.286,0,0,0,9.1,14.274a.917.917,0,0,0,.442.874,17.637,17.637,0,0,1,4.521,3.877Z" transform="translate(7.581 3.338)"/><path class="a" d="M14.25,28.206V26.587a.917.917,0,0,1,.757-.9A14.764,14.764,0,0,0,27.158,11.175a.917.917,0,0,0-.917-.917A14.773,14.773,0,0,0,11.5,24.54v3.667a1.375,1.375,0,1,0,2.75,0Z" transform="translate(9.583 8.508)"/></g></svg>