<svg xmlns="http://www.w3.org/2000/svg" xmlns:xlink="http://www.w3.org/1999/xlink" width="31.124" height="31" viewBox="0 0 31.124 31"><defs><style>.a{fill:url(#a);}</style><linearGradient id="a" x1="0.334" y1="-0.398" x2="0.736" y2="1.706" gradientUnits="objectBoundingBox"><stop offset="0" stop-color="#208e70"/><stop offset="1" stop-color="#226f5a"/></linearGradient></defs><path class="a" d="M7.417,20.813A13.085,13.085,0,0,1,5.6,19.366a1.3,1.3,0,1,0-1.79,1.877,15.6,15.6,0,0,0,2.179,1.74,1.3,1.3,0,1,0,1.427-2.17Z" transform="translate(1.012 5.58)"/><path class="a" d="M4.225,17.854a12.839,12.839,0,0,1-1.012-2.087,1.3,1.3,0,0,0-2.428.908A15.372,15.372,0,0,0,2,19.183a1.3,1.3,0,1,0,2.223-1.336Z" transform="translate(0.214 4.382)"/><path class="a" d="M15.867,21.579A12.968,12.968,0,0,1,13.6,22.1a1.3,1.3,0,1,0,.346,2.57,15.675,15.675,0,0,0,2.717-.619,1.3,1.3,0,1,0-.8-2.464Z" transform="translate(3.705 6.32)"/><path class="a" d="M11.585,22.1a12.952,12.952,0,0,1-2.264-.512,1.3,1.3,0,1,0-.8,2.464,15.432,15.432,0,0,0,2.723.615,1.3,1.3,0,1,0,.344-2.571Z" transform="translate(2.245 6.32)"/><path class="a" d="M23.3,15.01a1.3,1.3,0,0,0-1.67.756,13.079,13.079,0,0,1-1.01,2.089,1.3,1.3,0,1,0,2.228,1.334,15.484,15.484,0,0,0,1.215-2.509,1.3,1.3,0,0,0-.763-1.67Z" transform="translate(6.067 4.369)"/><path class="a" d="M19.466,19.363a13.114,13.114,0,0,1-1.816,1.449,1.3,1.3,0,1,0,1.427,2.163,15.667,15.667,0,0,0,2.179-1.736,1.3,1.3,0,0,0-1.792-1.875Z" transform="translate(5.052 5.579)"/><path class="a" d="M15.562.048A15.579,15.579,0,0,0,0,15.61c0,.477.022.948.064,1.412a1.3,1.3,0,0,0,2.583-.232q-.053-.584-.053-1.18a12.968,12.968,0,0,1,25.937,0q0,.6-.053,1.18a1.3,1.3,0,0,0,2.583.232c.041-.464.064-.935.064-1.412A15.579,15.579,0,0,0,15.562.048Z" transform="translate(0 -0.048)"/><path class="a" d="M3.959,10.905a10.446,10.446,0,0,0,7.406,9.986.324.324,0,0,0,.418-.319,12.616,12.616,0,0,1,1.3-5.368.648.648,0,0,0-.058-.67,10.421,10.421,0,0,0-8.413-4.272A.648.648,0,0,0,3.959,10.905Z" transform="translate(1.175 2.984)"/><path class="a" d="M12.611,14.644a.326.326,0,0,0,.5,0A12.421,12.421,0,0,1,16.3,11.9a.648.648,0,0,0,.313-.617,11.5,11.5,0,0,0-3.3-7.043.648.648,0,0,0-.918,0,11.52,11.52,0,0,0-3.3,7.039.648.648,0,0,0,.313.619,12.476,12.476,0,0,1,3.2,2.743Z" transform="translate(2.701 1.141)"/><path class="a" d="M13.445,22.954V21.809a.648.648,0,0,1,.536-.637,10.444,10.444,0,0,0,8.6-10.266.648.648,0,0,0-.648-.648A10.45,10.45,0,0,0,11.5,20.36v2.594a.973.973,0,0,0,1.945,0Z" transform="translate(3.414 2.983)"/></svg>