<svg xmlns="http://www.w3.org/2000/svg" width="32" height="32" viewBox="0 0 32 32"><defs><style>.a{fill:#fff;}</style></defs><path class="a" d="M24.6,23.467l-1.316,1.316a3.148,3.148,0,0,1-.9.386l-.022,0H22.28A15.419,15.419,0,0,1,6.861,9.755c0-.054,0-.109,0-.163V9.6a2.13,2.13,0,0,1,.395-.894l0,.005L8.569,7.395A2.211,2.211,0,0,1,10.611,6.9l-.015,0,.284.071a2.614,2.614,0,0,1,1.488,1.546l.006.018.676,2.418a2.4,2.4,0,0,1-.536,2.065l0,0-.853.853a9.281,9.281,0,0,0,6.442,6.491l.065.015.889-.853a2.288,2.288,0,0,1,1.541-.593,2.315,2.315,0,0,1,.537.063l-.016,0,2.418.64A2.61,2.61,0,0,1,25.1,21.1l.006.017.107.284a2.6,2.6,0,0,1,.017.3A2.786,2.786,0,0,1,24.6,23.47l0,0ZM16,0A16,16,0,1,0,32,16h0v-.021A15.979,15.979,0,0,0,16.021,0H16Z"/></svg>