<svg xmlns="http://www.w3.org/2000/svg" width="286.783" height="440" viewBox="0 0 286.783 440"><defs><style>.a{fill:#fff;}</style></defs><g transform="translate(-1161.179 -323.758)"><g transform="translate(1161.179 323.758)"><path class="a" d="M1431.852,614.243c-21.886-26.753-20.841-26.473-42.623-8.671a79.054,79.054,0,0,0,7.661-29.478c2.274-29.344,1.962-47.206-23.233-88.3-3.351-5.464-6.816-10.728-8.936-16.815-4.109-26.7-7.275-37.067-2.207-68.633.965-6,4.806-20.172,2.452-20.759a1.3,1.3,0,0,0-1.328.569c-6.343,9.967-13.98,28.794-18.3,56.761-8.637-20.645-10.176-43.143-9.654-65.339.021-.923-1.455-1.436-1.85-.5a109.06,109.06,0,0,0-5.785,17.786c-2.115-24.841-12.586-31.122-11.609-44.882a.9.9,0,0,0-.092-.468c.449-2.125.879-4.255,1.315-6.38.819-3.983.735-8.1,1.548-12.07a9.541,9.541,0,0,0,.4-2.037c-.061-4.494-8.835,3.811-12.309,11.424-6.165,13.519-3.55,31.262-.36,45.7,11.988,54.267,2.436,62.257-13.428,103.236.153-7.066.965-21.671,3.35-28.322,20.4-56.868-5.016-65.841-2.608-104.292a1.756,1.756,0,0,0-.136-1.127c-.6-1.058-1.047-1.463-2.117-.847-1.676.966-2.063,13.538-2.078,15.575-.073,10.165,1.17,18.41-.66,39.414-4.363,50.1-31.251,66.428-17.767,135.83-.073.479-1.323,35.362-1.134,38.612-21.608-45.089-13.135-50.171-5.016-112.239.433-3.315.248-7.033,1.4-10.18a.8.8,0,0,0-.2-.909c.513-1.362-1.446-1.772-1.883-.621-3.425,9.031-.785,8.085-9.137,26.057-3.9,8.4-7.611,16.222-10.439,24.749-1.046-19-6.684-38.63-20.472-52.6-2.205-2.233-5.725-6.207-9.3-5.442a1,1,0,0,0-.593,1.459c5.667,11.014,13.32,14.7,13.038,37.45-.265,21.477-6.652,65.581,6.843,98.668-4.028-3.4-9.234-7.671-10.132-10.769a.912.912,0,0,0-.33-.478c-10.016-17.75-26.932-28.587-45.152-38.088a1,1,0,0,0-1.457,1.121c1.074,3.6,3.886,6.149,6.158,9.023,10.949,13.859,16.955,40.655,56.661,76.716-26.788-15.458-29.657-12.87-47.391-2.414a137.579,137.579,0,0,0-18.349,13.206c-2.4,2.005-16.849,11.077-12.689,15.67,2.261,2.5,7.294-.235,9.607-1.172,14.459-5.854,20.226-6.305,42.421-14.4,7.943,3.337,10.105,2.007,26.749,8.863a15.344,15.344,0,0,0-3.421.636.888.888,0,0,0-.626.179,1.045,1.045,0,0,0-.508,1.494c-.386,2.86.394,5.772.465,8.647.271,10.863-.672,12.674,6.72,44.6,3.425,14.793,6.79,22.44,13.021,33.655a.745.745,0,0,0,.084.153c2.524,4.529,5.406,9.01,9.021,12.43a58.712,58.712,0,0,1-7.169-.3.809.809,0,0,0-.7.218.979.979,0,0,0-.662,1.442c2.543,4.468,3.776,9.271,5.781,13.943.754,1.755,1.375,2.36,3.392,2.606,4.011.491,8.8-.409,12.872-.535,5.371-.164,10.744-.211,16.116-.313,29.2-.563,35.413,1.123,47.523.479,3.434-.177,7.38-.712,11.229-.828a33.567,33.567,0,0,1,5.012.179c.81.1.75.27,1.509.132a1.237,1.237,0,0,0,.327-.1,1.016,1.016,0,0,0,.474-.567,2.4,2.4,0,0,0,.119-.522,41.954,41.954,0,0,1,1.569-7.244c.632-1.94,2.005-4.046,2.3-6.136.755-5.384-5.524-3.6-8.628-3.567-.075,0-.147.006-.22.006,13.473-18.83,15.7-31.282,17.577-41.671a.678.678,0,0,0,.093-.517c3.656-20.349,3.826-33.472,4.542-57.138a1.049,1.049,0,0,0-1.082-1.563,37.811,37.811,0,0,1-9.954.058c17.394-19.47,28.65-23.455,39.961-32.342,26.352,15.017,21.61,14.56,28.921,19.136,2.371,1.485,6.872,4.1,9.76,3.53C1453.007,632.739,1438.866,622.818,1431.852,614.243ZM1392.6,532.9c3.475,12.294,3.287,24.764,2.664,37.418-1.326,26.912-9.525,36.539-9.861,38.4-11.38,9.4-16.172,15.646-28.568,26.029,6.977-8.4,8.822-13.251,11.642-22.837,4.474-15.209,11.6-26.376,10.477-51.794-.455-10.266-3.807-29.736-7.262-38.149-1.871-4.557-4.479-8.7-5.216-13.65a.886.886,0,0,0-.089-.244,145.179,145.179,0,0,0-.625-29.579C1370.947,488.921,1385.7,508.479,1392.6,532.9Zm-26.771-19.364c2.078,5.68,4.673,8.837,7.072,19.513,10.555,47-2.032,61.869-6.337,78.25-4.434,16.862-10.544,20.864-19.739,32.122a118.01,118.01,0,0,0-14.743.276c13.148-26.783,20.735-51.471,20.634-79.724a.948.948,0,0,0,.252-.427C1357.771,546.345,1363.575,531.747,1365.833,513.536Zm-35.762,130.28c-8.2.524-9.07.416-26.326.009,10.893-23.02,7.971-19.675,13.609-35.191,3.059-8.421,6.421-16.771,9.568-25.19a.734.734,0,0,0,.175-.47c8.544-22.929,14.825-47.32,17.506-84.982,5.044,57.274,16.239,82.921-14.459,145.172A.962.962,0,0,0,1330.071,643.816Zm-51.781-82.511c.246-8.122-.761-34.252,3.166-56.78,2.22-12.73,6.729-24.46,11.251-36.31-2.436,21.261-.752,43.039,2.222,64.266a1.014,1.014,0,0,0,.114.83c5.561,39.252,12.574,58.076,13.26,71.329.183,3.543.423,13.029,2.438,17.679-3.043,9.081-4.457,11.476-9.152,21.453-2.435-.056-5.453-.062-7.649-.065C1293.513,607.943,1285.253,588.049,1278.29,561.306Zm13.656,82.388c-.549,0-1.1.013-1.644.017-4.013-33.816-15.53-52.4-17.218-58.7-1.336-4.994-1-7.911.136-35.2C1281.214,585.623,1291.433,603.08,1291.946,643.693Zm16.435-77.39c-.248,5.624-1.2,11.105-1.92,16.644-4.035-18.09-6.9-31.792-9.542-50.129,3.078-7.111,7.193-13.693,11.338-20.284C1306.265,525.341,1309.242,546.708,1308.381,566.3Zm1.4-49.963c1.591,8.247,7.645,20.063,10.689,37.741,1.964,11.4,2.617,23.425,4.563,28.777-7.613,20.384-6.986,17.121-13.2,36.177-2.291-9.264-.094-12.739-3.847-29.3,0-.032.036-3.252.036-3.283.642-6.13,1.9-12.1,2.251-18.286C1311.375,548.658,1308.6,530.217,1309.776,516.34Zm19.3-53.523a12.062,12.062,0,0,1,.229-2.731c1.7-7.818,1.011-9.813,1.914-14.514,6.587,20.063,8.952,13.165,11.418,23.8,2.142,9.236.493,63.958-16.461,110.377-.814-3.406-1.038-7.04-1.562-10.456-2.828-18.414-1-26.859,3.476-47.083C1337.412,480.151,1329.235,473.546,1329.08,462.817Zm.582,13.76c3.912,28.777-6.716,49.573-8.2,72.31-4.8-23.043-12.656-31.176-9.621-42.085,8.474-13.793,11.417-21.367,15.767-39.519C1328.118,470.4,1329.235,473.425,1329.662,476.577Zm17.62-37.345c2.974-18.4,7.441-36.278,16.205-52.758-1.067,10.8-8.333,30.355-4.27,61.837.645,5,1.461,9.978,2.278,14.974,7.091,43.283,2.791,55.06-8.91,94.45C1351.311,525.315,1340.566,480.762,1347.282,439.232Zm-13.657-60.22c-.146,21.774,2.084,43.585,11.172,63.643a199.274,199.274,0,0,0-1.845,21.276c-1.955-3.05-10.1-10.714-14.476-37.752C1325.959,410.628,1328.345,393.5,1333.625,379.012Zm-16.354-52.306c-1.208,5.992-.1,9.553-5.244,28.167a119.693,119.693,0,0,0-4,22.377C1304.275,358.975,1302.476,338.447,1317.27,326.706ZM1293.6,490.835c9.4-26.593,27.876-52.066,18.442-95.731-2.058-9.525-4.878-12.961,2.8-43.067,2.381,13.1,11.376,20.222,11.613,47.311-1.985,13.581-1.214,26.466,3.649,42.764-1.131,3.136-1.272,6.257-1.558,9.548a95.736,95.736,0,0,1-2.524,13.695c-8.913,37.856-18.783,41.128-29.592,63.846a296.291,296.291,0,0,1-2.957-38.149A.973.973,0,0,0,1293.6,490.835Zm-1.3-106.4c-.019-8.07-.785-16.2-.157-24.242.785,30.9,21.845,44.19,2.568,96.991-13.189,36.133-18.142,42.307-18.382,96.338C1254.623,463.614,1292.474,464,1292.3,384.439Zm-44.93,122.068c5.934-17.247,10.378-20.653,16.252-40.582-3.888,35.5-13.422,61.569-6.442,87,7.451,27.145,25.757,45.706,31.129,90.8-10.424.091-15.668-.041-15.841-.041-.067-.653-1.312-7.676-2.045-15.03a.979.979,0,0,0-.078-.763C1266.032,585.981,1229.153,559.463,1247.374,506.507Zm-30.042-55.446c3.139.886,6.829,5.785,8.52,7.654,18.3,20.248,16.978,52.93,17.541,54.058-7.328,27.421-.689,46.257,8.811,67.678-2.5-2.731-13.245-20.679-15.758-25.167-14.829-26.5-4.509-52.769-7.041-76.368C1227.853,464.459,1222.173,459.575,1217.332,451.061Zm10.808,87.934c3.354,13.75,11.031,25.156,19.674,38.03,1.666,2.481,3.186,5.779,6.027,7.1,5.856,13.04,12.37,27.188,14.125,40.754-4.85-6.061-9.517-12.129-15.217-17.5C1242.863,598.062,1229.387,586.777,1228.14,538.995Zm7.684,51.34a.932.932,0,0,0,.6.256c3.306,6.378,7.9,11.536,13.223,16.594,6.986,6.641,12.68,13.933,18.743,21.371.78,7.526,2.005,14.693,2.056,15.176q-1.229.045-2.461.155c-33.265-25.9-28.214-31.124-39.972-60.416C1230.54,585.856,1233.293,587.958,1235.824,590.335Zm-48.27-40.918c-2.026-3.042-5.16-5.817-7-9.059,10.805,5.69,21.586,11.844,30.326,20.463,20.444,20.159,17.795,45.068,33.407,64.175C1207.036,592.732,1196.388,562.688,1187.555,549.417Zm-15.7,97.759c-1.336.541-7.969,4.14-8.2.429-.088-1.409,3.653-4.166,4.595-4.979,10.865-9.391,22.267-17.856,35.136-24.311,8.382-4.207,12.882-5.462,32.937,5.83C1228.75,628.98,1180.315,643.755,1171.857,647.176Zm44.893-13.129c6.846-2.552,8.421-3.356,13.943-5.524,2.623-1.028,5.25-1.683,7.531-3.3,18.235,10.469,5.416,2.8,16.813,10.549a.926.926,0,0,0,.435.158c3.935,3.352,6.708,5.781,9.606,8.162a169.279,169.279,0,0,1-18.909-.082C1221.9,633.909,1227.788,638.045,1216.75,634.047ZM1372.412,699.9l-2.541-3.9a11.083,11.083,0,0,1,3.24-.205C1372.8,697.761,1372.621,698.727,1372.412,699.9Zm-4.261-3.436q1.914,2.935,3.828,5.867-.207,1.142-.42,2.278a63.68,63.68,0,0,0-6.5-6.886A28.554,28.554,0,0,1,1368.151,696.468Zm-4.727,2.045a62.062,62.062,0,0,1,7.718,8.257q-.294,1.48-.618,2.953a87.2,87.2,0,0,0-9.9-9.915C1361.566,699.406,1362.5,698.962,1363.424,698.513Zm-4.589,1.974a87.34,87.34,0,0,1,10.9,10.9.748.748,0,0,0,.364.239c-.278,1.168-.588,2.328-.916,3.485a139.662,139.662,0,0,0-13.836-13.907A13.337,13.337,0,0,0,1358.835,700.486Zm-5.953.793a139.573,139.573,0,0,1,15.722,15.732c-.243.77-.505,1.537-.78,2.3q-6.137-6.394-12.588-12.456a.8.8,0,0,0-.466-.44q-3.048-2.86-6.16-5.651A26.664,26.664,0,0,0,1352.882,701.279Zm10.876,27.154c-1.067,2.078-2.2,4.16-3.4,6.212a227.489,227.489,0,0,1-18.981-14.933c1.153-.313,2.309-.616,3.464-.931A112.192,112.192,0,0,1,1363.758,728.433Zm-7.109,12.15a92.885,92.885,0,0,1-19.554-19.72q1.172-.313,2.345-.631c.9,1.129,11.2,9.633,20.049,15.864Q1358.108,738.383,1356.649,740.583Zm-82.481,5.005c-1-1.129-6.635-4.839-14.291-14.034q.585-.531,1.166-1.065c.987,1.129,9.329,9.042,16.375,15.194C1275.823,745.614,1275.1,745.6,1274.168,745.588Zm4.837-.754-1.119-.979q-2.213-1.945-4.436-3.957c-6.266-5.679-11.165-10.544-11.165-10.544.593-.556,1.176-1.123,1.765-1.684q9.6,9.441,19.81,18.215c-.03-.026-.183,0-.224-.006-.256-.006-.513-.009-.772-.017q-1.015-.022-2.031-.054l-.711-.024-.821-.666C1279.2,745.036,1279.106,744.92,1279,744.834Zm7.477,1.089q-10.95-9.335-21.207-19.423c.705-.679,1.412-1.358,2.112-2.043a208.727,208.727,0,0,1,25.29,21.455Q1289.568,745.952,1286.482,745.924Zm8.551-.061a211.352,211.352,0,0,0-26.441-22.61c1-1,2.005-1.994,2.992-3.005-.233.239,15.92,14.506,16.177,14.728,4.128,3.535,9.079,7.591,13.239,10.84C1299.018,745.833,1297.033,745.851,1295.033,745.862Zm-14.616-35.11q2.681,10.133,5.361,20.267-1.782-1.567-3.542-3.16a.749.749,0,0,0-.054-.392,47.865,47.865,0,0,1-3.554-14.722Q1279.527,711.751,1280.417,710.752Zm6.261-7.3,11.338,37.851c-1.214-.978-2.432-1.953-3.634-2.946-.272-1.13-4.574-14.1-8.981-33.385C1285.827,704.469,1286.254,703.963,1286.678,703.454Zm-2.632,3.138q3.478,15.035,7.984,29.788c-1.392-1.169-2.8-2.322-4.171-3.511.147-.394-5.988-23.246-6.095-23.653C1282.527,708.344,1283.294,707.474,1284.046,706.592Zm-6.947,7.82a47.945,47.945,0,0,0,2.526,11.1q-3.472-3.2-6.869-6.483Q1274.955,716.742,1277.1,714.412Zm26.566,31.375c-1.123-.866-2.216-1.763-3.328-2.641l-12.363-41.261c.658-.806,1.3-1.621,1.951-2.434q8.255,22.856,14.56,46.333Zm42.046-45.413a8.639,8.639,0,0,0,.862.83l-50.249,11.542c-.172-.517-.344-1.035-.517-1.552C1296.069,711.138,1345.463,700.469,1345.711,700.374Zm10.51,9.848q-28.231,6.478-56.177,14.1c-.252-.81-.5-1.619-.75-2.429q27.644-6.039,54.883-13.71c.7.662,1.412,1.317,2.11,1.987A.593.593,0,0,0,1356.221,710.222Zm-20.821,11.1c.12.358,2.158,2.951,2.392,3.248l-3.514,1.666a6.852,6.852,0,0,1-1.985-4.078C1333.33,721.88,1334.363,721.594,1335.4,721.318Zm-4.72,1.267a8.668,8.668,0,0,0,2.011,4.4c-.019-.024-2.58,1.246-2.61,1.257l-.509-.664a9.679,9.679,0,0,1-.985-1.705,9.88,9.88,0,0,1-.464-1.248,10.493,10.493,0,0,1-.3-1.306C1328.778,723.07,1329.731,722.833,1330.681,722.585Zm-4.5,1.155a11.33,11.33,0,0,0,2.3,5.238l-2.4,1.14a11.064,11.064,0,0,1-2.7-5.27,5.772,5.772,0,0,0,.362-.481C1324.558,724.157,1325.374,723.95,1326.185,723.74Zm-8.335,8.038.9,1.815-3.772,1.787Q1316.412,733.578,1317.85,731.778Zm2.422,1.091q-.63-1.276-1.257-2.55,1.517-1.9,3.035-3.8a12.643,12.643,0,0,0,2.416,4.365Zm-14.469,11.3c-.149-.552-.3-1.106-.453-1.658a158.594,158.594,0,0,1,13.721-16.946c.664-.168,1.328-.343,1.992-.513Zm-1-3.677c-.125-.45-.252-.9-.379-1.347a153.369,153.369,0,0,1,9.447-12.271c.742-.185,1.489-.36,2.231-.547A141.967,141.967,0,0,0,1304.8,740.5Zm-.972-3.431c-.194-.683-.386-1.367-.584-2.05,6.4-7.986,4.841-6.714,7.884-7.466Q1307.285,732.16,1303.827,737.065Zm-1.156-4.026c-.31-1.063-.627-2.125-.944-3.184,1.451-.349,2.9-.714,4.348-1.067Zm-3.894-12.762q-.333-1.044-.67-2.086a517.712,517.712,0,0,0,53.019-12.872c.541.5,1.071,1,1.606,1.505Q1325.953,714.336,1298.777,720.277Zm-1.188-3.7c-.241-.739-.485-1.476-.728-2.213q25.621-5.887,51.243-11.771.775.7,1.547,1.4A517.145,517.145,0,0,1,1297.589,716.572Zm15.246,21.664c.6-.242,25.475-12.049,26.059-12.325q1.466,1.791,3.011,3.505a231.577,231.577,0,0,1-32.136,16.338c-1.03.006-2.06.013-3.089.017l.112-.138c.384-.483,3.047-3.819,3.431-4.3l2.145-2.686.214-.268A.518.518,0,0,1,1312.835,738.236Zm30.236-7.546q1.374,1.466,2.809,2.873-10.975,6.232-22.341,11.719a.727.727,0,0,0-.334.321q-4.645.09-9.292.121A205.489,205.489,0,0,0,1343.071,730.69Zm4.083,4.1c1.181,1.117,2.384,2.213,3.625,3.27q-6.83,3.319-13.409,7.106c-10.389.4-8.766.31-10.494.356Q1337.177,740.462,1347.155,734.789Zm5.056,4.449q1.715,1.407,3.5,2.744c-.625.909-1.253,1.8-1.894,2.673-5.385.1-5.753.114-12.769.377Q1346.543,741.974,1352.21,739.238Zm-50.967-11.008c-.229-.763-.467-1.524-.7-2.287Q1329,718.18,1357.758,711.6c.48.465.951.937,1.429,1.4Q1330.382,721.245,1301.244,728.23Zm59.3-13.89q2.23,2.213,4.423,4.471-4.455-1.514-8.854-3.184C1356.415,715.541,1360.281,714.487,1360.546,714.339ZM1339,700.122a6.4,6.4,0,0,0-.25-2.246c1.408.472,2.811.95,4.208,1.39Zm-2.293-2.91c.332,1.13.7.963.595,3.278q-1.712.369-3.425.741a25.519,25.519,0,0,0,.537-4.694Q1335.572,696.85,1336.712,697.212Zm-4.733,4.429-3.9.843-.53.114a26.215,26.215,0,0,0,2.358-6.992c.948.121,1.886.3,2.82.513.017,0-.008.463-.008.508a23.435,23.435,0,0,1-.543,4.516C1332.164,701.223,1332.048,701.624,1331.979,701.641Zm-6.522,1.224c-.213.295-.226.237-.517.3l-6.106,1.321c-.036.007-.153.013-.177.039a42.2,42.2,0,0,0,6.439-8.979,14.666,14.666,0,0,1,3.121-.082,25.346,25.346,0,0,1-2.248,6.568A3.9,3.9,0,0,1,1325.457,702.865Zm-9.152,1.69c-.686.77-.2.521-1.588.819l-7.182,1.554c.2-.188,9.212-8.783,9.348-9.02a47.12,47.12,0,0,1,6.04-1.979,41.325,41.325,0,0,1-5.382,7.346C1317.143,703.71,1316.7,704.115,1316.305,704.555Zm-12.812,3.248c-.023,0-4.567.987-4.567.987,2.505-2.742,4.94-5.548,7.275-8.441a18.434,18.434,0,0,0,6.891-1.086c-2.923,2.8-4.66,4.46-7.439,7.124C1304.055,707.916,1304.139,707.663,1303.493,707.8Zm-7.193,1.435c-.119.166-.267.183-.479.229-.183.039-.368.075-.552.114q-.981-2.893-1.994-5.777c.937-.341,5.371-4,6.18-4.718a33.668,33.668,0,0,0,4.707,1.074s-1.052,1.289-2.313,2.776q-2.345,2.762-4.809,5.438A5.968,5.968,0,0,0,1296.3,709.237Zm-3.6-7.04c-.507-1.433-1.015-2.864-1.536-4.292a2.16,2.16,0,0,0,.444-.666,24.943,24.943,0,0,1,5.91,1.259A55.79,55.79,0,0,1,1292.7,702.2Zm-35.075,29.12c-.442-.806-.873-1.612-1.295-2.41l30.172-31.566a27.433,27.433,0,0,1,3.108-.188A281.943,281.943,0,0,1,1257.626,731.317Zm-2.125-3.992c-1.668-3.192-3.694,2.692,24.313-28.436.3-.336.046-.254.513-.367.754-.185,1.509-.362,2.261-.524.39-.082.782-.162,1.173-.237Q1269.63,712.544,1255.5,727.325ZM1253.793,724c-.408-.806-.81-1.612-1.186-2.431a2.324,2.324,0,0,1,.253-.261q1.948-2,3.933-4.108c7.523-7.99,15.517-17.562,14.954-16.97a49.878,49.878,0,0,0,5.388-.91Q1265.717,711.9,1253.793,724Zm-1.925-4.106q-.515-1.178-.991-2.373c.187-.2,14.95-17.284,15.129-17.491a27.128,27.128,0,0,0,3.464.248Q1261.059,710.437,1251.868,719.895Zm-1.686-4.138c-.345-.918-.672-1.843-.99-2.772.36-.1,11.745-13.646,11.988-13.932,1.151.271,1.813.425,2.88.649Q1257.119,707.731,1250.181,715.757Zm-1.565-4.5c-.22-.683-.442-1.364-.651-2.05a130.763,130.763,0,0,0,8.428-11.154c.976.153,1.953.349,2.934.569Q1253.972,704.942,1248.616,711.261Zm-1.224-4.018c-.207-.72-.412-1.442-.608-2.166q2.748-3.652,5.494-7.305a17.828,17.828,0,0,1,2.254.052A117.6,117.6,0,0,1,1247.392,707.243ZM1246.241,703q-.375-1.469-.726-2.946a11.772,11.772,0,0,1,4.44-1.992Q1248.1,700.531,1246.241,703Zm12.232,29.837c.052-.048.1-.1.157-.143a97.958,97.958,0,0,0,12.967,12.9c-1.064.015-2.125.037-3.188.062C1264.372,742.376,1261.2,737.658,1258.473,732.837Zm103.883,17.284c-.435,3.451-2.4,6.979-2.94,10.579-3.766-.444-7.691.25-11.478.366-34.92,1.067-8.581-1.227-72.588.133-7.648.162-9.831,1.638-11.96-4.393a69.933,69.933,0,0,0-3.99-9.324,76.2,76.2,0,0,0,8.406.14s3.653-.108,5.889-.088c5.087.048,10.12.576,15.213.47,9.683-.2,19.364-.207,29.047-.3,5.867-.054,35.467-1.071,35.558-1.069C1359.7,746.776,1363.043,744.674,1362.357,750.121Zm2.169-23.2a108.01,108.01,0,0,0-17.123-8.848c2.028-.562,4.052-1.138,6.078-1.707.416.39,13.044,4.914,13.618,4.9C1366.506,722.756,1365.993,723.965,1364.526,726.92Zm11.988-81.106c-.485,16.2-.748,32.321-3.153,48.338-9.633-.851-12.133,9.143-30.769,3.222-4.9-1.558-9.828-3.5-15.032-3.651-5.785-.173-10.6,2.74-16.019,4.218-7.555,2.063-13.131-2.017-20.36-2.727-4.706-.464-9.214,1.114-13.7,2.283-7.736,2.015-13.48-.114-21.013-1.227-4.095-.6-7.949-.241-11.365,2.03-5.973-25.912-6.535-33.2-6.52-40.891.006-3.451-1.041-7.628-.448-11.051,4.227-1.179,9.029-.224,13.346-.2,5.359.035,10.848.332,16.176-.28,7.871-.9,49.917.435,57.476.254,6.2-.151,12.366-1,18.571-.78,6.4.231,12.546.159,18.942-.032C1367.3,645.186,1371.9,646.3,1376.514,645.814Zm7.716-20.479c-16.578,13.389-11.631,10.2-19.248,18.246-6.242-.425-4.1.323-15.331-.063,1.974-2.518,5.39-4.68,7.618-6.563,17.9-15.1,16.708-16.834,36.59-32.685,0,0,5.64,2.694,11.727,6.094C1398.7,615.694,1391.042,619.834,1384.23,625.335Zm58.69,6.1c-4.143-.485-11.551-7.29-14.051-9.176-3.33-2.513-21.088-13.512-33.3-19.315,7.171-5.6,11.8-9.827,17.886-6.415,2.819,1.582,19.933,23.041,27.617,30.339.92.871,2.377,1.843,3.028,2.968C1445.379,632.038,1444.867,631.663,1442.92,631.433Z" transform="translate(-1161.179 -323.758)"/></g><g transform="translate(1245.352 655.168)"><path class="a" d="M1206.447,504.271c-.614.9.853,1.752,1.462.854a4.446,4.446,0,0,1,7.925.9c.386,1.007,2.024.571,1.632-.45A6.154,6.154,0,0,0,1206.447,504.271Z" transform="translate(-1206.3 -501.411)"/></g><g transform="translate(1251.459 669.654)"><path class="a" d="M1213.772,509.224a3.592,3.592,0,0,0-4.194,3.6c.056,1.084,1.75,1.091,1.694,0a1.89,1.89,0,0,1,2.049-1.964C1214.387,511.036,1214.844,509.4,1213.772,509.224Z" transform="translate(-1209.574 -509.176)"/></g><g transform="translate(1264.741 677.597)"><path class="a" d="M1218.388,519.452a4.6,4.6,0,0,1,3.994-4.373c1.074-.159.618-1.791-.452-1.634a6.271,6.271,0,0,0-5.236,6.007A.847.847,0,0,0,1218.388,519.452Z" transform="translate(-1216.694 -513.434)"/></g><g transform="translate(1274.837 660.3)"><path class="a" d="M1223.181,505.839a2.915,2.915,0,0,1-.465,5.693c-1.069.2-.616,1.828.452,1.632a4.61,4.61,0,0,0,.462-8.958C1222.589,503.874,1222.143,505.509,1223.181,505.839Z" transform="translate(-1222.106 -504.162)"/></g><g transform="translate(1284.071 673.812)"><path class="a" d="M1233.369,512.016a7.612,7.612,0,0,1-5.708,6.018c-1.06.259-.61,1.892.449,1.634a9.273,9.273,0,0,0,6.891-7.2C1235.206,511.4,1233.576,510.946,1233.369,512.016Z" transform="translate(-1227.056 -511.405)"/></g><g transform="translate(1274.619 683.76)"><path class="a" d="M1230.345,522.95a8.805,8.805,0,0,1-6.669-5.636c-.367-1.017-2-.578-1.632.45a10.5,10.5,0,0,0,7.85,6.818C1230.958,524.792,1231.414,523.159,1230.345,522.95Z" transform="translate(-1221.989 -516.738)"/></g><g transform="translate(1306.733 677.074)"><path class="a" d="M1242.116,513.971a4.483,4.483,0,0,1-2.487,4.093c-.968.5-.114,1.96.854,1.462a6.162,6.162,0,0,0,3.326-5.555A.847.847,0,0,0,1242.116,513.971Z" transform="translate(-1239.204 -513.154)"/></g><g transform="translate(1304.138 659.229)"><path class="a" d="M1242.966,507.733a4.483,4.483,0,0,0-4.335-4.145.847.847,0,0,0,0,1.694,2.753,2.753,0,0,1,2.643,2.451C1241.358,508.811,1243.053,508.821,1242.966,507.733Z" transform="translate(-1237.813 -503.588)"/></g><g transform="translate(1286.265 654.429)"><path class="a" d="M1229.514,504.944a20.721,20.721,0,0,1,9.486-2.237.846.846,0,0,0,0-1.692,22.641,22.641,0,0,0-10.34,2.466C1227.687,503.972,1228.544,505.434,1229.514,504.944Z" transform="translate(-1228.232 -501.015)"/></g><g transform="translate(1330.684 659.05)"><path class="a" d="M1252.7,510.273c-.435.989,1.024,1.852,1.462.856a7.515,7.515,0,0,0-.515-7.247c-.594-.91-2.06-.062-1.462.854A5.77,5.77,0,0,1,1252.7,510.273Z" transform="translate(-1252.043 -503.492)"/></g><g transform="translate(1316.94 673.579)"><path class="a" d="M1250.528,515.809a5.278,5.278,0,0,1-4.192-3.925.847.847,0,0,0-1.632.45,6.941,6.941,0,0,0,5.372,5.108C1251.142,517.645,1251.6,516.013,1250.528,515.809Z" transform="translate(-1244.675 -511.28)"/></g><g transform="translate(1338.004 678.174)"><path class="a" d="M1264.077,513.841a9.512,9.512,0,0,1-7.064.606.847.847,0,0,0-.452,1.632,11.314,11.314,0,0,0,8.372-.776C1265.907,514.817,1265.05,513.354,1264.077,513.841Z" transform="translate(-1255.966 -513.743)"/></g><g transform="translate(1352.802 661.656)"><path class="a" d="M1265.324,510.555a4.6,4.6,0,0,0,.705-5.237c-.491-.974-1.951-.117-1.463.854a2.837,2.837,0,0,1-.44,3.184C1263.4,510.163,1264.591,511.364,1265.324,510.555Z" transform="translate(-1263.899 -504.889)"/></g><g transform="translate(1362.397 654.632)"><path class="a" d="M1269.474,502.682a5.051,5.051,0,0,1,2.88,4.542.847.847,0,0,0,1.694,0,6.738,6.738,0,0,0-3.72-6.005C1269.355,500.738,1268.495,502.2,1269.474,502.682Z" transform="translate(-1269.042 -501.123)"/></g><g transform="translate(1350.563 684.27)"><path class="a" d="M1267.965,517.289a6.212,6.212,0,0,1-4.451,2.218c-1.084.056-1.091,1.748,0,1.694a7.894,7.894,0,0,0,5.649-2.714C1269.872,517.664,1268.678,516.462,1267.965,517.289Z" transform="translate(-1262.699 -517.011)"/></g><g transform="translate(1330.954 686.105)"><path class="a" d="M1255.664,520.228a2.806,2.806,0,0,1-1.786-1.66c-.38-1.011-2.018-.573-1.632.45a4.61,4.61,0,0,0,2.966,2.845C1256.255,522.192,1256.7,520.558,1255.664,520.228Z" transform="translate(-1252.188 -517.995)"/></g><g transform="translate(1310.238 690.918)"><path class="a" d="M1247.693,520.681a6.1,6.1,0,0,1-5.313.235c-.988-.429-1.852,1.03-.854,1.463a7.92,7.92,0,0,0,7.022-.237C1249.512,521.634,1248.657,520.172,1247.693,520.681Z" transform="translate(-1241.082 -520.575)"/></g><g transform="translate(1313.411 651.271)"><path class="a" d="M1244.017,501.624a3.461,3.461,0,0,1,4.994,1.2c.513.963,1.975.108,1.463-.854a5.157,5.157,0,0,0-7.311-1.808C1242.27,500.773,1243.115,502.242,1244.017,501.624Z" transform="translate(-1242.783 -499.322)"/></g><g transform="translate(1343.333 648.835)"><path class="a" d="M1260.1,502.866c-.338,1.039,1.3,1.483,1.632.45a4.62,4.62,0,0,0-1.7-5.134c-.867-.659-1.713.812-.854,1.461A2.9,2.9,0,0,1,1260.1,502.866Z" transform="translate(-1258.823 -498.016)"/></g><g transform="translate(1270.446 649.658)"><path class="a" d="M1221.343,502.706a6.214,6.214,0,0,1,2.974-2.552c1-.4.563-2.039-.451-1.632a8.1,8.1,0,0,0-3.985,3.33C1219.312,502.784,1220.776,503.637,1221.343,502.706Z" transform="translate(-1219.752 -498.457)"/></g><g transform="translate(1247.344 681.127)"><path class="a" d="M1211.112,517a.848.848,0,0,0-.449-1.634,4.482,4.482,0,0,0-2.1,7.378c.72.821,1.914-.381,1.2-1.2A2.763,2.763,0,0,1,1211.112,517Z" transform="translate(-1207.368 -515.326)"/></g><g transform="translate(1241.866 664.63)"><path class="a" d="M1207.66,508.173c1.015-.373.576-2.011-.45-1.634a4.193,4.193,0,0,0-2.731,4.626c.155,1.075,1.785.617,1.632-.451A2.453,2.453,0,0,1,1207.66,508.173Z" transform="translate(-1204.432 -506.483)"/></g><g transform="translate(1243.53 648.596)"><path class="a" d="M1205.759,499.442l3.55,1.694c.979.468,1.84-.992.854-1.462l-3.55-1.694C1205.634,497.511,1204.774,498.972,1205.759,499.442Z" transform="translate(-1205.324 -497.888)"/></g><g transform="translate(1260.579 658.062)"><path class="a" d="M1215.271,502.988c-1.073.112-1.084,1.808,0,1.694a2.793,2.793,0,0,1,3.113,3.574.847.847,0,0,0,1.632.451A4.483,4.483,0,0,0,1215.271,502.988Z" transform="translate(-1214.463 -502.962)"/></g><g transform="translate(1257.25 682.768)"><path class="a" d="M1218.581,522.7a4.323,4.323,0,0,1-4.078-5.442c.261-1.06-1.373-1.511-1.632-.451a6.034,6.034,0,0,0,5.711,7.587C1219.672,524.442,1219.67,522.748,1218.581,522.7Z" transform="translate(-1212.678 -516.206)"/></g><g transform="translate(1287.345 661.967)"><path class="a" d="M1230.6,511.994a4.461,4.461,0,0,0-.563-6.783c-.89-.634-1.735.834-.854,1.463a2.751,2.751,0,0,1,.22,4.123C1228.615,511.552,1229.813,512.748,1230.6,511.994Z" transform="translate(-1228.81 -505.056)"/></g><g transform="translate(1283.343 649.466)"><path class="a" d="M1236.134,499.963a.847.847,0,0,0-.854-1.461,6.974,6.974,0,0,1-7.356-.021.848.848,0,0,0-.856,1.462A8.694,8.694,0,0,0,1236.134,499.963Z" transform="translate(-1226.665 -498.355)"/></g><g transform="translate(1255.909 649.758)"><path class="a" d="M1219.643,498.519a24.038,24.038,0,0,0-7.247,2.095c-.985.463-.127,1.923.854,1.463a21.4,21.4,0,0,1,6.393-1.864C1220.71,500.076,1220.723,498.381,1219.643,498.519Z" transform="translate(-1211.959 -498.511)"/></g><g transform="translate(1329.697 648.377)"><path class="a" d="M1255.579,498.161c-.593-.91-2.06-.062-1.463.854a1.8,1.8,0,0,1-1.795,2.83c-1.082-.121-1.075,1.575,0,1.694A3.484,3.484,0,0,0,1255.579,498.161Z" transform="translate(-1251.513 -497.771)"/></g><g transform="translate(1363.986 668.277)"><path class="a" d="M1270.712,511.854a.847.847,0,0,0,0,1.694,2.85,2.85,0,0,0,2.1-4.852c-.756-.787-1.951.41-1.2,1.2A1.144,1.144,0,0,1,1270.712,511.854Z" transform="translate(-1269.894 -508.438)"/></g><g transform="translate(1336.862 666.279)"><path class="a" d="M1263.039,513.32c1.067.17,1.526-1.463.45-1.634-1.265-.2-2.543-.123-3.808-.291-1.291-.172-3.442-1.158-2.376-2.783.6-.916-.868-1.765-1.463-.854a3.226,3.226,0,0,0,.91,4.328C1258.575,513.465,1260.935,512.984,1263.039,513.32Z" transform="translate(-1255.354 -507.367)"/></g><g transform="translate(1350.984 648.068)"><path class="a" d="M1264.505,501.787a4.911,4.911,0,0,1,4.744-2.468c1.086.086,1.08-1.608,0-1.694a6.577,6.577,0,0,0-6.206,3.307A.847.847,0,0,0,1264.505,501.787Z" transform="translate(-1262.924 -497.605)"/></g><g transform="translate(1363.989 681.02)"><path class="a" d="M1272.414,516.278a2.427,2.427,0,0,1-1.714,3.328c-1.065.14-1.078,1.836,0,1.694a4.106,4.106,0,0,0,3.347-5.472C1273.633,514.838,1271.993,515.273,1272.414,516.278Z" transform="translate(-1269.896 -515.269)"/></g><g transform="translate(1290.439 691.155)"><path class="a" d="M1234.423,521.967a3.5,3.5,0,0,1-2.5-1.02c-.78-.763-1.978.433-1.2,1.2a5.257,5.257,0,0,0,3.7,1.517A.847.847,0,0,0,1234.423,521.967Z" transform="translate(-1230.469 -520.702)"/></g><g transform="translate(1295.091 673.978)"><path class="a" d="M1238.4,512.094a.847.847,0,0,0-1.632.45,4.339,4.339,0,0,1-3.193,5.285c-1.062.25-.612,1.882.45,1.634A6.05,6.05,0,0,0,1238.4,512.094Z" transform="translate(-1232.963 -511.494)"/></g><g transform="translate(1260.54 670.896)"><path class="a" d="M1219.253,509.846a5.2,5.2,0,0,0-4.692,2.606.848.848,0,0,0,1.463.854,3.5,3.5,0,0,1,3.229-1.767C1220.344,511.581,1220.342,509.889,1219.253,509.846Z" transform="translate(-1214.442 -509.842)"/></g><g transform="translate(1266.113 693.862)"><path class="a" d="M1226.391,522.233a11.088,11.088,0,0,1-7.921.41c-1.043-.323-1.489,1.31-.45,1.632a12.876,12.876,0,0,0,9.225-.58C1228.239,523.256,1227.379,521.8,1226.391,522.233Z" transform="translate(-1217.429 -522.153)"/></g><g transform="translate(1245.78 691.394)"><path class="a" d="M1212.022,521.9a9.532,9.532,0,0,1-4.207-.978c-.974-.479-1.834.979-.854,1.463a11.492,11.492,0,0,0,5.061,1.207A.846.846,0,0,0,1212.022,521.9Z" transform="translate(-1206.53 -520.83)"/></g><g transform="translate(1243.625 672.383)"><path class="a" d="M1209.054,512.268c.856-.651.013-2.121-.856-1.463a6.964,6.964,0,0,0-2.821,5.126c-.086,1.086,1.608,1.08,1.692,0A5.1,5.1,0,0,1,1209.054,512.268Z" transform="translate(-1205.374 -510.639)"/></g><g transform="translate(1296.618 664.077)"><path class="a" d="M1234.389,506.48c-1.31,1.664-.849,5.266,4.871,5.026,1.086-.047,1.091-1.741,0-1.694a5.643,5.643,0,0,1-2.951-.351c-.524-.287-1.194-1.185-.722-1.783C1236.252,506.831,1235.062,505.624,1234.389,506.48Z" transform="translate(-1233.781 -506.187)"/></g><g transform="translate(1301.641 650.23)"><path class="a" d="M1237.964,502.161a8.556,8.556,0,0,1,4.25-1.754c1.074-.147.617-1.778-.449-1.634a10.16,10.16,0,0,0-5,2.19C1235.912,501.64,1237.119,502.832,1237.964,502.161Z" transform="translate(-1236.474 -498.764)"/></g><g transform="translate(1316.03 661.424)"><path class="a" d="M1245.209,504.823c-1.02-.388-1.46,1.248-.449,1.632a5.271,5.271,0,0,1,3.224,3.77c.25,1.06,1.882.61,1.632-.451A7.005,7.005,0,0,0,1245.209,504.823Z" transform="translate(-1244.187 -504.764)"/></g><g transform="translate(1300.285 686.245)"><path class="a" d="M1239.523,524.021a2.409,2.409,0,0,1-1.166-4.324c.86-.647.017-2.117-.856-1.462a4.111,4.111,0,0,0,1.571,7.419C1240.136,525.855,1240.593,524.222,1239.523,524.021Z" transform="translate(-1235.747 -518.07)"/></g><g transform="translate(1346.394 691.952)"><path class="a" d="M1266.961,522.114a4.276,4.276,0,0,1-5.046-.739c-.778-.765-1.977.431-1.2,1.2a6.02,6.02,0,0,0,7.1,1C1268.776,523.061,1267.922,521.6,1266.961,522.114Z" transform="translate(-1260.464 -521.129)"/></g><g transform="translate(1352.322 669.816)"><path class="a" d="M1270.177,510.076c-.075-1.08-1.768-1.089-1.694,0a4.125,4.125,0,0,1-4.024,4.4.847.847,0,0,0,0,1.694A5.831,5.831,0,0,0,1270.177,510.076Z" transform="translate(-1263.641 -509.263)"/></g><g transform="translate(1366.825 648.185)"><path class="a" d="M1272.477,499.386a3.205,3.205,0,0,1,3.575,2.253.848.848,0,0,0,1.634-.45,4.933,4.933,0,0,0-5.658-3.438C1270.957,497.95,1271.41,499.582,1272.477,499.386Z" transform="translate(-1271.416 -497.668)"/></g><g transform="translate(1358.708 690.019)"><path class="a" d="M1274.947,520.319a6.528,6.528,0,0,1-6.864,1.172c-1.015-.4-1.455,1.241-.449,1.632a8.211,8.211,0,0,0,8.51-1.606C1276.957,520.787,1275.756,519.593,1274.947,520.319Z" transform="translate(-1267.065 -520.093)"/></g></g></svg>