<svg xmlns="http://www.w3.org/2000/svg" width="164.384" height="164.857" viewBox="0 0 164.384 164.857"><defs><style>.a{fill:#fff;}</style></defs><path class="a" d="M294.476,394.516a37.58,37.58,0,0,1-7.243-3.114c-1.457-.78-3.215-1.261-4.754-1.989a40.968,40.968,0,0,0,4.567-1.287c1.653-.585,5.362-2.291,3.295-4.709a3.4,3.4,0,0,0-2.626-.871,28.261,28.261,0,0,0-7.269.787c1.086-2.843,2.667-7.2,2.393-9.779a2.03,2.03,0,0,0-2.614-2.061,2.869,2.869,0,0,0-2.208,2.061h0c-1,2.594-.8,6.508-2.07,10.671-.029,0-8.6,1.9-10.086,2.326-2.725.781-5.406,1.824-8.173,2.439.772-4.919.783-8.806-1.118-8.968-3.587-.306-4.052,7.9-4.505,10.011-.7,3.255-1.584,6.336-2.05,9.653-.4,2.855-1.426,5.676-1.6,8.551a11.414,11.414,0,0,0-3.239,2.308,124.349,124.349,0,0,0-5.9-12.418c-1.182-2.211-3.6-6.782-6.74-4.684-2.669,1.78-.854,5.437.522,7.363A111.941,111.941,0,0,0,242.691,413a28.79,28.79,0,0,1-2.26,2.078c-4.961,3.994-9.487,8.6-14.419,12.586a.617.617,0,0,0-.074.089l-1.369.027c.672-3.205,1.7-18.39,2.574-25.212.208-1.623,1.355-7.237.442-10.5,4.961-6.081,9.3-12.7,14.578-18.51h0c.326-.358.643-.725.976-1.076q.535-.564,1.092-1.116a92.8,92.8,0,0,1,9.781-1.279c3.134-.388,6.25-.815,9.38-1.235a80.547,80.547,0,0,0,8.147-1.289,3.212,3.212,0,0,0,2.638-2.043c1.073-4.279-6.4-2.987-8.219-2.663-3.237.578-6.438,1.227-9.665,1.878-2.4.484-4.755,1.222-7.131,1.8a31.569,31.569,0,0,0,2.632-3.064c.9-1.213,2.319-3.4.883-4.786a1.92,1.92,0,0,0-.512-.353c.66-5.606,3.068-10.776,4.155-16.28.455-2.3,1.7-7.75-2.31-7.187-3.216.451-2.863,5.249-3.158,7.706-.66,5.5-1.913,11.095-2,16.635a.562.562,0,0,0,.014.082c-.555.428-1.054.894-1.438,1.241-2.877,2.6-4.861,5.839-7.206,8.915-.941,1.235-1.9,2.436-2.849,3.641.086-3.929.308-7.849.348-11.784.035-3.461.67-7.7-.875-10.944-.713-1.5-1.952-2.186-3.377-1.16-2.048,1.476-1.673,4.8-1.375,7.088-1.74-.518-3.491-1.049-5.243-1.527a112.367,112.367,0,0,0-.281-15.6c-.22-1.927-.809-5.777-2.746-7.049h0c-1.81-1.189-5-.226-4.35,6.014.284,2.71,1.052,5.34,1.449,8.03.379,2.564.7,5.031,1.312,7.536-1.006-.185-2.013-.361-3.008-.607a30.654,30.654,0,0,0-4.65-1.241c-2.417-.2-5.582,2.4-2.854,4.669,1.454,1.209,4.13.82,5.818.934,2.121.144,4.2.433,6.283.779,1.332.221,2.663.466,4,.712a21.736,21.736,0,0,0,4.449.618,117.964,117.964,0,0,0,1.622,14.008c.186,1.129.376,2.252.567,3.357-2.414,3.345-5.3,8.359-8.92,12.832a1.979,1.979,0,0,0-1.72.3h0c-2.735,1.856-3.159,9.9-3.333,12.014-.349,4.226-.372,8.47-.764,12.694-.41,4.422-1.626,8.736-1.827,13.171-2.827.069-3.512.086-5.148.153.067-7.532.809-15.083,1.339-22.592.467-6.622.829-13.233,1.266-19.848,1.491-1.062,3.254-1.732,4.815-2.7,1.208-.744,2.44-1.454,3.652-2.195h0c3.229-1.974,6.961-4.4,6.2-7.191h0a3.164,3.164,0,0,0-.24-.634c-1.27-2.46-3.548-1.97-5.965-.44h0c-.5.319-1.013.682-1.521,1.074h0c-2.563,1.978-5.078,4.667-6.538,5.851.075-2.069-.053-4.444-1.026-5.851h0a2.789,2.789,0,0,0-1.037-.936c0-1.93-1.473-3.889-2.235-5.556-1.172-2.567-2.914-5.461-3.579-8.226a14.577,14.577,0,0,0,.715-2.743c.84-4.407,1.533-8.8,2.237-13.236.631-3.974,2.31-8.239,1.935-12.322-.538-5.856-6.037-4.353-7.11.4-.842,3.724-.835,7.9-1.178,11.71-.3,3.292-.717,6.616-.991,9.934-3.906-5.177-4.861-11.317-7.6-14.058a.6.6,0,0,0,.157-.333c.674-5.382,1.95-10.592,2.325-16.034.157-2.286,1.005-7.891-2.323-8.392-3.145-.474-3.355,4.013-3.386,6.235-.081,5.707-.361,11.369-.113,17.06-2.478.319-4.288,4.244-.963,9.524a75.794,75.794,0,0,0-10.224,2.266c-1.8.485-6.152,1.525-5.454,4.453,1.27,5.328,15.015-3.025,17.447-3.988a.546.546,0,0,0,.064-.042c1.879,2.771,3.32,5.265,5.1,7.827-2.638,1.82-16.244,7.646-13.179,11.468,1.326,1.653,4.539.128,5.888-.6,3.739-2.009,6.257-5.277,9.566-7.811,6.058,7.693,6.53,8.756,9.805,12.869a2.973,2.973,0,0,0-.4.53h0a4.276,4.276,0,0,0-.5,1.2c-.8,3.146-.024,6.631-.221,9.9-.674-.766-1.385-1.5-2.137-2.228a29.224,29.224,0,0,0-5.546-4.748c-1.07-.6-2.9-1.393-4.045-.539-1.211.9-.97,2.639-.251,3.791,1.181,1.892,3.607,3.045,5.253,4.395a56.354,56.354,0,0,0,5.469,4.557,8.149,8.149,0,0,0,1.412.7c-.024,6.248-.085,12.538-.343,18.777-.262,6.319-.109,12.589-.475,18.887-.861.041-1.721.071-2.582.116-.386-6.615-4.751-18.455-5.661-21.365-.778-2.485-2.573-9.27-5.928-10.225a.62.62,0,0,0-.067-.209c-1.718-3.117-2.4-6.882-3.711-10.208-1.192-3.027-2.253-6.135-3.626-9.079a30.66,30.66,0,0,0-2.058-3.729h0c-1.768-2.7-4.279-5.326-6.8-3.909-1.362.765-1.346,2.259-.766,3.909h0a12.933,12.933,0,0,0,.61,1.43c-.721-.108-1.459-.111-2.185-.175a16.286,16.286,0,0,1-4.236-.892c-.012-.005-.023,0-.035-.006-.028-.119-.05-.239-.078-.357-1.29-5.673-1.553-14.923-5.275-24.48,2.971-2.51,17.113-11.872,12.374-17.147-1.155-1.286-2.588-1.254-4.108-.455.046-3.5.3-19.211-3.635-16.9-2.17,1.274-2.008,6.041-1.9,8.155a76.98,76.98,0,0,0,1.744,11.952,60.507,60.507,0,0,0-6.736,9.69c-1.681-1.93-4.009-1.085-4.276,2.256-3-.415-15.111-2.8-14.885,2.313.09,2.027,2.432,2.593,3.93,2.721a69.912,69.912,0,0,0,11.688-.255c.68,2.281,1.674,4.536,2.361,6.65,1.114,3.423,2.154,6.863,3.024,10.364.216.868.55,2.423,1.062,3.983-2.227-.423-10.216-2.015-12.319,1.155h0a2.377,2.377,0,0,0,.566,3.369c1.142.816,2.9.749,4.224.872,2.148.2,4.291.334,6.444.405,5.036.166,10,1.25,15.022,1.431a.42.42,0,0,0,.046-.008c.142.227.265.43.352.594,2.78,5.261,4.91,11.52,8.552,16.267-5.583-1.351-11.491-1.762-17.12-2.441-1.059-.128-2.11-.319-3.171-.438-.172-.019-.344-.037-.517-.053a.716.716,0,0,1-.452-.126q-.4-.327-.8-.664c-.522-.445-1.031-.9-1.519-1.39-.893-.885-1.739-1.819-2.58-2.758s-1.676-1.882-2.549-2.786a27.513,27.513,0,0,0-2.73-2.516c-3.387-2.679-8.295-6.677-12.717-7.047-2.364-.2-3.76,1.527-2.313,3.8,1.052,1.651,3.3,2.928,4.84,3.988,2.078,1.428,4.361,2.472,6.485,3.833-5.318,2.709-10.642,5.473-15.7,8.671-1.819,1.151-4.315,2.824-5.037,5.106a2.424,2.424,0,0,0,2.354,3.209c2.354.172,4.447-2.288,6.146-3.663,3.082-2.494,6.129-5.184,9.3-7.535,1.776-1.317,4-2.222,5.81-3.517.954.677,1.888,1.443,2.826,2.15.847.638,1.56,1.427,2.355,2.123a2.446,2.446,0,0,0-.971,1.66c-.493,3.588,5.826,3.338,7.764,3.455,7.04.426,14.1.3,21.145.561-.033,2.727,1.539,6.294,2.127,7.824,2.695,7.015,6.08,13.738,8.951,20.683-.427.025-.854.046-1.282.071-1.254-2.849-9.442-12.329-10.157-13.168-1.612-1.9-4.891-8.829-8.448-7.229-5.021-1.636-9.821-3.848-14.8-5.566-1.828-.631-6.094-2.148-7.06.748-.96,2.88,2.954,3.8,4.719,4.058,5.256.778,10.446,1.358,15.542,2.98a5.348,5.348,0,0,0,.56,2.492c-1.711.924-3.817,1.3-5.613,2.037a55.193,55.193,0,0,1-7.443,2.418c-3.062-2.7-6-5.912-9.262-8.335-1.653-1.229-4.593-2.347-6.362-.583-3.347,3.337,6.84,8.684,10.432,10.458a11.875,11.875,0,0,0-1.664.82c-3.486,2.125-1.562,5.864,1.884,5.533-.175.017-.395.322-.493.453-1.11,1.479-2.165,3-3.366,4.411a16.386,16.386,0,0,0-2.663,4.033c-.751,1.7-1.692,4.72.861,5.239,2.395.487,4.261-1.756,5.332-3.655,1.194-2.115,2.08-4.339,3.41-6.379a31.829,31.829,0,0,0,3.324-5.4,8.024,8.024,0,0,0,.422-1.549,39.3,39.3,0,0,0,6.714-3.125c2.088-1.255,4.315-2.083,6.39-3.3a.55.55,0,0,0,.163-.147c7.377,6.912,2.728,1.2,12.323,13.086-5.29.422-10.617,1.216-15.9,1.4a.5.5,0,0,0-.332.141.555.555,0,0,0-.38.686c.42,1.7,1.53,3.006,2.246,4.569a39.273,39.273,0,0,1,2.3,7.573c1.054,4.63,1.87,9.3,2.812,13.958a28.335,28.335,0,0,0,1.736,5.68,17.693,17.693,0,0,1,1.224,3.022c.19.829.142,1.745.4,2.56a3.309,3.309,0,0,0,.168.416,53.958,53.958,0,0,0-5.518.2.585.585,0,0,0-.53.732,16.565,16.565,0,0,0,1.475,3.58c.527,1.238.786,2.951,1.492,4.079,1.01,1.612,3.531.74,5.078.612,7.768-.642,15.434-1.074,23.229-1.151,3-.03,6,.03,8.99.214,6.926.426,4.866.309,13.261-.21,1.485-.092,4.347.42,5.544-.762.873-.861,2.83-6.263,4.336-9.123a.6.6,0,0,0-.328-.849c-1.59-.658-3.9-.1-5.8.376.632-1.774.464-4.386.539-5.781.911-16.9,2.174-16.654,3.765-26.685,1.6-10.1,2.147-7.478-11.2-6.753,2.678-2.132,14.6-11.93,15.954-13.171,5.049,1.1,23.951,4.478,25.13,4.609,2.415,4.337,6.438,8.09,9.666,11.748,1.554,1.76,6.06,7.938,9.117,6.245,5.5-3.047-10.033-15.087-13.939-18.134a3.282,3.282,0,0,0,2.164-1.5c1.679-3.119-2.894-4.756-6.024-5.531,2.611-2.884,12.222-12.815,6.9-14.89-2.1-.816-3.983,1.435-5.082,2.924-4.263,5.775-2.892,3.01-7.762,10.786A115.827,115.827,0,0,0,253,408.826c.579-2.359,2.284-8.27,3.581-14.127,5.477-1.875,16.2-3.486,22-4.508a54.239,54.239,0,0,0,12.375,6.472c1.179.405,6.026,2.557,7.118.914C299.3,395.741,295.342,394.767,294.476,394.516Zm-78.917-12.1c.03-.417.077-.955.121-1.551a29.553,29.553,0,0,0,4.8-4.1,33.833,33.833,0,0,1,3.19-2.714l.155-.109h0c.187-.132.38-.264.578-.389h0a4.988,4.988,0,0,1,.633-.349c.991-.439,3.591-1.108,3.886.349h0a4.188,4.188,0,0,1-.842,2.653c-.778,1.327-2.557,2.413-4.254,3.333h0c-.953.517-1.882.983-2.59,1.409-1.873,1.126-3.946,2.065-5.787,3.267C215.484,383.614,215.516,383.012,215.559,382.411Zm-61.1-31.923c-1.219.052-2.43.216-3.65.255-.9.028-3.694.3-4.168-1.691-.182-.763.253-1.12.944-1.4a12.042,12.042,0,0,1,5.84-.571c2.167.141,4.317.467,6.476.7a15.349,15.349,0,0,0,.4,2.477C158.361,350.407,156.4,350.4,154.458,350.488ZM180.7,409.4a67,67,0,0,0-9.263-2.132c-1.416-.24-2.824-.5-4.25-.655a29.233,29.233,0,0,1-3.014-.357c-1.067-.227-2.015-.27-2.483-1.494a1.294,1.294,0,0,1,.052-1.09,1.945,1.945,0,0,1,.831-.666,1.34,1.34,0,0,1,.452-.174,1.087,1.087,0,0,1,.382.037c.538.129,1.068.284,1.61.411a19.432,19.432,0,0,1,2.326.728c1.529.569,3,1.288,4.514,1.9,2.959,1.206,5.986,2.234,9.017,3.225A2.25,2.25,0,0,0,180.7,409.4Zm96.112-24.758a24.6,24.6,0,0,0,1.643-7.332c.142-1.28.084-2.823.915-3.759h0a2.157,2.157,0,0,1,.566-.458c1.064-.6,1.549-.239,1.737.458h0c.455,1.691-.617,4.992-1.281,6.733-.329.864-1.634,4.1-1.762,4.581-.145.552-.229,1.517-1.23,1.657a.639.639,0,0,1-.765-.455A2.242,2.242,0,0,1,276.816,384.644ZM237.676,405.1c-.989-1.243-2.081-2.389-3.059-3.643-1.008-1.292-3.286-3.991-2.142-6.057a2.07,2.07,0,0,1,1.343-1.018c1.343-.293,2.222.836,3.078,1.707a112.669,112.669,0,0,1,7.428,15.272q-.421.414-.836.837C241.44,410.035,239.53,407.426,237.676,405.1Zm23.01-40.1c.847-.183,1.691-.378,2.537-.561,1.286-.279,2.578-.54,3.882-.706a7.782,7.782,0,0,0,1.65-.245,6.011,6.011,0,0,1,1.923-.147,3.167,3.167,0,0,1,1.149.151,1.309,1.309,0,0,1,.811.816,1.283,1.283,0,0,1-.075.852,2,2,0,0,1-.512.679,3.267,3.267,0,0,1-2.107.786c-4.432.551-8.8,1.544-13.248,2.018-3.6.385-7.338.574-10.931,1.226.633-.607,1.268-1.213,1.9-1.828C252,367.207,256.349,365.94,260.686,365Zm-9.635-15.99c.243-2.132.644-4.241.9-6.37.087-.731.142-1.463.211-2.195.049-.513.046-1.029.09-1.542a4.677,4.677,0,0,1,.514-1.381,2.384,2.384,0,0,1,.652-1.007,1.39,1.39,0,0,1,2.18.6,2.881,2.881,0,0,1,.344,1.1,7.509,7.509,0,0,1-.464,2.425c-.253.961-.358,1.973-.576,2.944a43.913,43.913,0,0,1-1.439,4.9,46.2,46.2,0,0,0-2.373,9.678,3.473,3.473,0,0,0-1.106.379C250.1,355.39,250.694,352.148,251.051,349.011Zm-29.441-5.246c-.3-1.594-.677-3.178-.917-4.786a14.736,14.736,0,0,1-.229-2.674c.059-1.686,1.876-3.881,3.356-2.373h0a2.585,2.585,0,0,1,.238.271c2.1,2.8,1.574,7.811,1.753,11.156.165,3.083.03,6.039-.054,9.1-.591-.152-1.182-.3-1.774-.43-.054-.012-.109-.022-.163-.033h0l-.4-.083C222.542,350.564,222.257,347.157,221.61,343.766Zm3.214,13.388c-.335-.062-.669-.114-1-.167-3.055-.474-6.114-.585-9.193-.854a3.326,3.326,0,0,1-2.553-1.089c-.457-.605-.238-1.064.237-1.548,1.075-1.093,1.954-.667,4.772.176a51.875,51.875,0,0,0,5.179,1.2c.52.1,1.039.21,1.558.327,3.223.728,6.432,1.762,9.6,2.671C233.13,358.84,225.579,357.292,224.824,357.154Zm8.537,2.244a1.46,1.46,0,0,0,1.144-1.945.512.512,0,0,0-.17-.287.5.5,0,0,0-.35-.334c-.265-.075-.531-.157-.8-.234a.635.635,0,0,0,.013-.23,20.618,20.618,0,0,1-.249-2.649,4.166,4.166,0,0,1,.371-3.151.714.714,0,0,1,.837-.432,2.24,2.24,0,0,1,1.342.464c.824.74.88,2.063,1.024,3.095a45.391,45.391,0,0,1,.1,7.066c-.07,4.266-.29,8.527-.364,12.791a7.974,7.974,0,0,0,0,.944c-.3.394-.6.8-.9,1.2-.121-.707-.242-1.422-.36-2.139A116.83,116.83,0,0,1,233.361,359.4Zm4.873,14.155h0c1.521-1.921,3.105-3.754,4.516-5.789a44.391,44.391,0,0,1,3.439-4.376c1.271-1.418,2.7-3.632,4.678-3.942a1.259,1.259,0,0,1,.892.168,1.168,1.168,0,0,1,.342,1.467,17.606,17.606,0,0,1-2.9,3.648c-1.053,1.1-2.151,2.147-3.2,3.252-.747.788-1.5,1.564-2.246,2.34a.47.47,0,0,0-.2.211c-.953.991-1.9,1.988-2.812,3.02h0c-3.611,4.064-9.018,11.638-13.639,17.327a2.8,2.8,0,0,0-.519-.647C230.815,384.912,233.848,379.09,238.234,373.553Zm-17,35.449A95.692,95.692,0,0,1,222,398.514c.209-1.324.426-2.646.735-3.95a14.2,14.2,0,0,1,.7-2.308,3.17,3.17,0,0,1,.379-.689h0a1.489,1.489,0,0,1,2.239-.017c.916,1.033.633,4.5.471,6.573-.253,3.229-.794,6.424-1.153,9.641-.2,1.778-1.393,16.571-1.556,17.83h0c-.107.829-.353,2.206-.353,2.206q-2.236.042-4.472.093C219.26,422.668,220.669,420.995,221.229,409Zm-16.907-51.9s.056-2.756.42-6.626c.316-3.359,1.041-9.336,1.609-15.919.21-2.436.15-5.019,2.3-6.2.794-.435,2.977-.769,3.017,2.174.42,3.478-.9,4.77-2.37,15.306-.94,6.71-1,6.184-1.877,10.605-.652,3.861-2.481,3.444-3.016,2.341A2.692,2.692,0,0,1,204.323,357.1ZM193.753,320.46c.028-3.817.431-4.78,1.37-5.118a1.416,1.416,0,0,1,1.188.154c.682.406.766.883,1,1.555.5,1.428.056,3.618-.045,5.1a57.751,57.751,0,0,1-.671,6.273c-.568,3.167-1.178,6.169-1.595,9.347a4.27,4.27,0,0,0-1.363-.643C193.385,331.445,193.669,331.656,193.753,320.46Zm-6.838,30.519c-1.353.615-2.69,1.193-4.088,1.69-.523.186-1.042.39-1.572.56a11.463,11.463,0,0,1-2.313.686,2.16,2.16,0,0,1-1.479-.352.993.993,0,0,1-.379-.477,1.3,1.3,0,0,1,.369-1.152,3.79,3.79,0,0,1,1.814-1.207,15.727,15.727,0,0,1,1.955-.655c1.14-.312,2.291-.609,3.443-.864a68.552,68.552,0,0,1,7.641-1.552c.287.41.458.662.458.662C190.785,349.122,188.864,350.094,186.915,350.979Zm4.553,15.525c-.8.487-6.274,3.158-4.756-.5.406-.976,2.636-2.017,3.486-2.577,1.114-.734,2.253-1.418,3.4-2.085a46.741,46.741,0,0,0,5.561-3.338q.465.636.946,1.26C197.446,361.376,196.014,363.734,191.468,366.5Zm10.5-6.736c-3.058-3.8-5.383-8.076-8.235-12.035-1.422-1.974-2.857-4.031-2.883-6.629a2.24,2.24,0,0,1,.1-1.682,2.579,2.579,0,0,1,3.726-.788,4.691,4.691,0,0,1,.783,1.056,16.494,16.494,0,0,1,1.849,3.245c1.788,3.946,3.272,7.963,6.06,11.271-.03.454-.169,2.649-.133,3.1-.272,1.6.257,3.6,2.05,3.62a2.323,2.323,0,0,0,1.831-.815c.576,1.648,1.524,3.236,2.2,4.8.521,1.2,1.033,2.4,1.591,3.583a14.782,14.782,0,0,1,1.669,3.84,3.534,3.534,0,0,0-.374-.014,2.428,2.428,0,0,0-.662.125.6.6,0,0,0-.034-.065C208.22,368.269,205.268,363.872,201.966,359.768Zm8.611,19.116c-.024-1.428-.51-6.329,2.609-5.143,1.585.6,1.547,3.62,1.523,5.024-.085,5.091-.89,10.127-.974,15.227-.187,11.393-1.987,22.728-2.085,34.133-.579.027-1.159.052-1.739.078.362-6.283.212-12.535.472-18.838.254-6.145.316-12.342.342-18.5a1.412,1.412,0,0,0,1.384-.461,2.038,2.038,0,0,0-.065-2.033,11.09,11.09,0,0,0-.734-1.314c-.143-.217-.291-.432-.442-.642-.063-.087-.426-.464-.414-.558A47.676,47.676,0,0,0,210.577,378.884Zm-4.908,7.452c-1.982-1.733-4.214-3.159-6.169-4.9-.688-.613-3.324-3.186.48-3.311.56-.018,1.454.665,1.939.98a24.6,24.6,0,0,1,3.524,3.07c2.192,2.111,4.364,4.106,5.771,6.91.031.446-.253.531-.7.414a.566.566,0,0,0-.325-.112A25.608,25.608,0,0,1,205.669,386.335Zm-35.1-68.509c.227-.886.262-1.658,1.2-1.62.984.039.98,1.038,1.177,1.95a30.076,30.076,0,0,1,.55,4.87c.14,2.985.072,6,.081,8.99a.551.551,0,0,0,.027.132,15.642,15.642,0,0,0-1.8,1.563C170.741,328.785,169.335,322.653,170.569,317.826Zm2.3,16.647c.943-.883,2.9-2.677,4.173-2.317a1.975,1.975,0,0,1,1.384,1.838,13.348,13.348,0,0,1-.276,1.691,3.017,3.017,0,0,1-.508,1.194c-2.514,4.58-7.754,7.81-11.647,11.072a17.441,17.441,0,0,0-1.139-2.57C166.242,342.9,170.694,336.512,172.87,334.473Zm-6.119,32.393c-1.412-5.626-3.538-10.994-5.189-16.535-.136-.456-.273-.918-.37-1.384a5.752,5.752,0,0,1-.144-2.974,2.3,2.3,0,0,1,.664-.873,1.17,1.17,0,0,1,.43-.3,1.057,1.057,0,0,1,.9.29,2.953,2.953,0,0,1,.826.944,12.4,12.4,0,0,1,.642,1.264,46.839,46.839,0,0,1,2.92,8.811c.5,2.094.867,4.222,1.2,6.352.435,2.808.807,5.628,1.339,8.418.17.9.367,1.785.579,2.671h0c.116.487.23.975.363,1.458.057.211.267.569.126.766a.386.386,0,0,1-.439.111,2.013,2.013,0,0,1-.9-.623,6.525,6.525,0,0,1-1.055-1.712h0a20.137,20.137,0,0,1-.9-2.635C167.354,369.581,167.089,368.215,166.751,366.867Zm5.394,10.645c-3.025-.343-6.046-.353-9.075-.575-1.14-.084-2.284-.179-3.422-.289-.421-.044-1.923-.2-1.979-.243a3.163,3.163,0,0,0-.668-.128,3.711,3.711,0,0,1-.88-.3.789.789,0,0,1-.39-.369.934.934,0,0,1-.043-.365,2.71,2.71,0,0,1,.17-1.026,1.646,1.646,0,0,1,.55-.667h0a1.813,1.813,0,0,1,.307-.186,4.616,4.616,0,0,1,1.315-.252,10.98,10.98,0,0,1,1.271-.16c.828-.033,1.653.037,2.481.047a30.888,30.888,0,0,1,5.145.551h0c.154.027.308.052.461.081a.522.522,0,0,0,.115,0c.694,1.714,2,4.082,4.117,3.405a1.073,1.073,0,0,0,.734-.643c.116-.36-.14-.812-.237-1.157a19.665,19.665,0,0,0,2.917.635,19.525,19.525,0,0,1,3.886.461c.013.005.023,0,.036.005.436.748.895,1.459,1.3,2.088C177.55,378.268,174.842,377.818,172.145,377.512Zm-14.812,11.649q-1.416.845-2.808,1.734-1.12.712-2.227,1.442a46.416,46.416,0,0,0-4.545,3.193c-1.423,1.2-2.843,2.407-4.316,3.541-.79.608-1.563,1.239-2.335,1.872a12.6,12.6,0,0,1-3.414,2.325,2.919,2.919,0,0,1-1.145.244,1.3,1.3,0,0,1-1.028-.511,1.462,1.462,0,0,1-.154-1.207,4.87,4.87,0,0,1,1.23-1.807,9.708,9.708,0,0,1,1.489-1.447c.859-.645,1.845-1.163,2.751-1.736,1.86-1.176,3.831-2.11,5.735-3.193q5.019-2.857,10.036-5.715a1.872,1.872,0,0,1,1.231-.358.539.539,0,0,1,.278.133.562.562,0,0,1,.131.474C158.175,388.624,157.731,388.923,157.332,389.161Zm3.718,2.145c-.826-.616-1.635-1.267-2.464-1.879.959-.87,1.159-1.771.186-2.736-.335-.333-1.088-.136-1.474-.012-.138.044-1.342.636-1.355.62a.558.558,0,0,0-.119-.121c-2.758-1.86-5.742-3.219-8.421-5.214-.7-.525-2.574-1.33-2.809-2.264-.861-3.424,2.028-2.147,3.276-1.685a27.741,27.741,0,0,1,5.2,2.887,51.435,51.435,0,0,1,8.459,7.1c1.818,1.8,3.525,3.749,5.442,5.44a9.428,9.428,0,0,0-3.058.429c-.014-.013-.021-.029-.036-.041C162.878,393.059,162.069,392.065,161.051,391.307Zm29.861,7.644c-5.032-.188-10.067-.151-15.1-.342-2.4-.091-4.808-.1-7.2-.29-.823-.065-1.676-.119-2.5-.233-1.3-.18-2.48-.084-2.516-1.666-.037-1.6,1.285-1.584,2.633-1.684a22.737,22.737,0,0,1,3.651.188c2.34.2,4.656.532,6.983.856,4.807.669,9.713.965,14.423,2.255A3.3,3.3,0,0,0,190.912,398.951Zm-6.8-15.826c-.971-2-1.968-4-3.1-5.9a27.671,27.671,0,0,1-1.915-3.672h0c-.7-1.78-.835-3.379,1.4-2.81a6.533,6.533,0,0,1,3.4,2.81h0a27.241,27.241,0,0,1,1.955,3.408c1.186,2.362,2.063,4.875,3.018,7.345,1.543,3.993,2.549,8.592,4.52,12.383a3.451,3.451,0,0,0-.74.187,2.788,2.788,0,0,0-.42.224c-.154-.046-.312-.081-.466-.125C188.4,393.185,186.333,387.707,184.107,383.125Zm9.13,22.486c-.591-1.7-1.447-3.815-1.286-5.674.288-3.33,3.8-1.22,4.855.474a20.887,20.887,0,0,1,1.907,4.341c4.274,12.553,6.132,18.287,6.422,23.676q-1.051.056-2.1.118C198.085,416.429,195.355,411.7,193.237,405.611Zm-35.151,9.33c-1.406-.839-7.2-4.175-4.374-5.893,2.418-1.469,5.319,1.932,6.917,3.439,1.929,1.821,3.936,3.553,5.928,5.3-.794.2-1.595.414-2.376.662C162.1,417.429,160.083,416.133,158.087,414.941Zm10.509,7.7c-.129,1.649-1.59,3.276-2.443,4.571A45.493,45.493,0,0,0,163,432.457c-.851,1.764-1.694,4.233-3.376,5.288-2.611,1.639-3.676-.32-2.258-3.109a54.186,54.186,0,0,1,3.963-5.641c1.306-1.655,2.631-3.28,3.962-4.916.594-.731,1.069-1.562,1.675-2.282.348-.414.927-.871,1.352-.548C168.652,421.5,168.626,422.261,168.6,422.641Zm8.071-4.739a38.383,38.383,0,0,1-6.925,3.37,1.564,1.564,0,0,0-1.156-1.419c-2.547-.666-3.28,3.67-5.225,4.278-1.226.384-4.272-.331-2.674-2.648,1.185-1.717,7.2-2.224,15.38-5.514,1.777-.715,3.722-1.051,5.414-1.961a10.881,10.881,0,0,0,.769,1.1C180.427,416.163,178.486,416.764,176.667,417.9Zm12.024,1.476c-1.563-1.536-3.317-2.8-4.919-4.271a7.094,7.094,0,0,1-1.733-2.132c-1.141-2.424,1.028-4.637,3.191-2.551a33.659,33.659,0,0,1,2.862,3.994c1.2,1.578,2.548,3.024,3.836,4.523,1.469,1.711,2.784,3.523,4.136,5.336a35.858,35.858,0,0,1,3.324,4.479c-.909.057-1.819.1-2.728.165a.53.53,0,0,0-.046-.084C194,425.66,191.618,422.254,188.691,419.377Zm54.47,48.036c.341-.063,2.169-.347,2.394-.082.112.131-.068.363-.138.517-.514,1.127-.973,2.3-1.47,3.442-2.138,4.909-2.715,4.394-5.273,4.54a107.651,107.651,0,0,1-14.853.273c-2.644-.1-5.291-.2-7.96-.188-6.137.034-12.271.059-18.388.618-7.552.69-8.48,1.15-9.593.441-1.082-.69-1.292-2.606-1.793-3.813-.268-.645-.609-1.252-.9-1.884-.074-.16-.144-.322-.212-.484a.968.968,0,0,1-.13-.328c.007-.236.3-.129.443-.136.171-.008.341-.023.512-.036.251-.019.5-.049.755-.058.4-.014.779-.079,1.183-.075q.748.008,1.5.007c2,0,3.99-.03,5.988-.059.851-.012,1.69.054,2.535.032,1.893-.049,3.784-.143,5.676-.241,2.517-.132,5.035-.272,7.555-.33,4.279-.1,8.558-.189,12.836-.306,6.926-.189,12.93-.363,12.93-.363C239.458,468.741,240.843,467.841,243.161,467.413ZM242,427.9a7.453,7.453,0,0,1,1.73-.082c1.551.3,1.118.908.983,2.168-.9,8.454-3.87,16.527-4.349,28.731-.414,10.535.764,8.99-16.542,9.376-5.326.119-10.656.2-15.978.41-3.013.117-6,.14-9,.38-1.816.145-7.483,1.092-8.411-.9-.493-1.061-.431-2.719-.895-3.875-.567-1.413-1.264-2.723-1.708-4.194-.993-3.29-1.249-6.771-2.047-10.11-.817-3.42-1.409-6.892-2.362-10.278a32.41,32.41,0,0,0-1.162-3.476c-.628-1.538-1.731-2.924-2.288-4.489,10.04-.424,15.1-2.177,43.853-2.6C238.113,428.744,238.849,428.175,242,427.9Zm7.864-15.06c-1.735,2.157-3.931,3.314-6,4.955-.928.735-11.8,9.794-11.8,9.794-2,.076.774.016-4.372.125,2.938-2.474,5.763-5.188,8.613-7.769,3.287-2.975,6.757-5.575,9.926-8.69a6.612,6.612,0,0,1,3.649-2.2c.465-.059.96-.095,1.256.284C251.852,410.27,250.575,411.952,249.861,412.84Zm41.071,17.02c1.051,1.224,5.233,7.62.024,5.415-1.308-.553-2.2-1.615-7.775-8.033-2.244-2.584-4.948-5.2-6.793-8.184a15.159,15.159,0,0,0,1.97-.012C282.955,422.839,288.881,427.471,290.932,429.86Zm-15.277-25.554c1.348-1.676,2.9-4.342,4.567-5.608a2.655,2.655,0,0,1,2.208-.7,1.49,1.49,0,0,1,.727,1.261c.18,1.868-1.784,4.43-2.95,5.886-1.747,2.18-3.719,4.143-5.447,6.341-.553-.117-2.164-.439-3.514-.688A67.513,67.513,0,0,1,275.656,404.306Zm4.313,10.17c2.592,2.869-.433,3.075-1.59,3.174-4.577.393-9.133-.9-13.593-1.795-4.649-.931-9.329-1.538-13.965-2.509a7.394,7.394,0,0,0,2.014-3.372C259.3,410.152,278.134,412.445,279.968,414.475Zm-27.976-6.255a3.02,3.02,0,0,0-2.452-.37c.214-2.151.978-4.25,1.322-6.375.372-2.288.558-4.6,1.113-6.853.544-2.2,1.168-4.33,1.566-6.573.369-2.076.528-4.2,1.681-6,.579-.905,1.214-.918,1.626-.546.552.5.343,1.21-.008,4.3C256.014,393.108,253.386,401.178,251.993,408.22Zm24.536-19.078c-6.473,1.172-13.363,2.147-19.663,4.251.226-1.075.436-2.141.617-3.172,2.947-.592,5.78-1.729,8.67-2.557,3.129-.9,6.334-1.389,9.484-2.2a2.024,2.024,0,0,0,.7,2.269c1.79,1.083,3.1-1.774,3.616-3.123a31.229,31.229,0,0,1,6.695-.876c.734,0,1.371-.233,2.025.205,1.147.769-.027,2.348-1.466,2.908C283.782,388.182,280.105,388.494,276.529,389.142Zm12.515,5.6a47.274,47.274,0,0,1-8.842-4.855c.2-.039.406-.076.608-.116a20.882,20.882,0,0,0,3.022,1.246c1.745.708,3.353,1.705,5.046,2.531.695.339,7.712,2.687,7.654,3.11C296.42,397.49,289.588,394.955,289.044,394.744Z" transform="translate(-133.925 -313.723)"/></svg>