<svg xmlns="http://www.w3.org/2000/svg" width="26" height="20.989" viewBox="0 0 26 20.989"><defs><style>.a{fill:#fff;}</style></defs><path class="a" d="M27.249,6.541A12.741,12.741,0,0,1,24.55,9.3v.661A15.949,15.949,0,0,1,22.9,17.007a14.972,14.972,0,0,1-5.288,5.729,14.561,14.561,0,0,1-8.152,2.313A14.728,14.728,0,0,1,1.249,22.68a8.145,8.145,0,0,0,1.322.056,10.507,10.507,0,0,0,6.61-2.2A5.518,5.518,0,0,1,6.1,19.43a4.809,4.809,0,0,1-1.873-2.644,3.264,3.264,0,0,0,.937.11,6,6,0,0,0,1.432-.166A5.269,5.269,0,0,1,2.351,11.5v-.056A6.256,6.256,0,0,0,4.72,12.1,5.131,5.131,0,0,1,2.351,7.641,5.306,5.306,0,0,1,3.067,5a14.208,14.208,0,0,0,11.017,5.508,3.664,3.664,0,0,1-.166-1.157A4.947,4.947,0,0,1,15.46,5.6a5.151,5.151,0,0,1,3.8-1.542,5.034,5.034,0,0,1,3.856,1.6,11.8,11.8,0,0,0,3.36-1.212,5.245,5.245,0,0,1-2.313,2.92,15.005,15.005,0,0,0,3.085-.827Z" transform="translate(-1.249 -4.06)"/></svg>